<svg width="367" height="79" viewBox="0 0 367 79" fill="none" xmlns="http://www.w3.org/2000/svg">
<path d="M34.28 45.32V4.2H26.92V44.52C26.92 52.28 22.52 55.08 17.56 55.08C12.6 55.08 8.12 51.96 8.12 45.8H0.76C0.76 56.28 8.36 61.96 17.64 61.96C26.36 61.96 34.28 57.24 34.28 45.32ZM55.675 5.4C55.675 2.76 53.595 0.519997 50.875 0.519997C48.155 0.519997 45.915 2.76 45.915 5.4C45.915 8.12 48.155 10.28 50.875 10.28C53.595 10.28 55.675 8.12 55.675 5.4ZM47.355 61H54.235V21H47.355V61ZM104.557 58.68V21H97.6769V27.16C94.9569 23.16 89.6769 20.2 83.7569 20.2C72.6369 20.2 64.1569 29.16 64.1569 40.52C64.1569 51.96 72.6369 60.92 83.7569 60.92C89.6769 60.92 94.9569 57.88 97.6769 53.88V58.44C97.6769 68.04 91.1169 72.28 84.3169 72.28C78.1569 72.28 73.5169 69.64 70.3169 65.56L65.5169 70.36C68.9569 74.84 75.6769 78.52 84.3169 78.52C95.7569 78.52 104.557 72.04 104.557 58.68ZM71.1969 40.52C71.1969 32.52 76.7169 26.52 84.7169 26.52C92.7169 26.52 98.2369 32.52 98.2369 40.52C98.2369 48.6 92.7169 54.52 84.7169 54.52C76.7169 54.52 71.1969 48.6 71.1969 40.52ZM143.511 49.8C143.511 43.72 139.511 40.12 132.631 38.04L128.231 36.68C123.831 35.32 122.551 33.32 122.551 30.92C122.551 27.96 125.831 26.12 129.191 26.12C133.031 26.12 135.751 28.12 137.511 30.68L142.631 27.16C139.991 22.68 135.351 20.2 129.431 20.2C121.751 20.2 115.751 24.28 115.671 31.16C115.671 36.76 119.111 40.92 125.671 42.84L129.671 44.12C134.871 45.72 136.631 47.48 136.631 50.36C136.631 53.8 133.511 55.72 129.671 55.72C125.271 55.72 120.951 53.48 119.511 49.4L113.911 52.52C116.311 58.76 122.471 61.8 129.591 61.8C137.591 61.8 143.511 57.48 143.511 49.8ZM150.407 41C150.407 52.44 158.807 61.8 170.007 61.8C176.007 61.8 181.447 58.68 184.087 54.84V61H190.967V21H184.087V27.16C181.447 23.32 176.007 20.2 170.007 20.2C158.807 20.2 150.407 29.56 150.407 41ZM184.647 41C184.647 49.08 179.127 55.48 171.047 55.48C162.967 55.48 157.367 49.08 157.367 41C157.367 32.92 162.967 26.52 171.047 26.52C179.127 26.52 184.647 32.92 184.647 41ZM237.837 61H243.918L257.518 21H250.238L240.558 50.2L230.558 21H225.278L215.278 50.2L205.598 21H198.398L211.998 61H218.078L227.998 32.2L237.837 61ZM319.144 51.08L313.144 47.72C310.904 52.28 306.424 55.4 300.664 55.4C292.344 55.4 286.664 49 286.664 41C286.664 33 292.344 26.6 300.664 26.6C306.424 26.6 310.904 29.72 313.144 34.28L319.144 30.92C315.624 24.52 308.904 20.2 300.664 20.2C288.584 20.2 279.704 29.4 279.704 41C279.704 52.6 288.584 61.8 300.664 61.8C308.904 61.8 315.624 57.48 319.144 51.08ZM366.698 41C366.698 29.48 357.818 20.2 345.818 20.2C333.738 20.2 324.858 29.48 324.858 41C324.858 52.52 333.738 61.8 345.818 61.8C357.818 61.8 366.698 52.52 366.698 41ZM331.898 41C331.898 33 337.498 26.6 345.818 26.6C354.138 26.6 359.658 33 359.658 41C359.658 49 354.138 55.4 345.818 55.4C337.498 55.4 331.898 49 331.898 41Z" fill="#2D58F2"/>
</svg>
